%TF.GenerationSoftware,KiCad,Pcbnew,9.0.4*%
%TF.CreationDate,2026-02-08T23:46:54+09:00*%
%TF.ProjectId,bmp-boost-extender-mini,626d702d-626f-46f7-9374-2d657874656e,rev?*%
%TF.SameCoordinates,Original*%
%TF.FileFunction,Legend,Top*%
%TF.FilePolarity,Positive*%
%FSLAX46Y46*%
G04 Gerber Fmt 4.6, Leading zero omitted, Abs format (unit mm)*
G04 Created by KiCad (PCBNEW 9.0.4) date 2026-02-08 23:46:54*
%MOMM*%
%LPD*%
G01*
G04 APERTURE LIST*
%ADD10C,0.100000*%
%ADD11C,0.150000*%
%ADD12C,0.254000*%
%ADD13O,1.700000X1.100000*%
%ADD14R,0.300000X0.650000*%
%ADD15R,0.300000X1.150000*%
G04 APERTURE END LIST*
D10*
X110922931Y-87977847D02*
X111037217Y-88015942D01*
X111037217Y-88015942D02*
X111075312Y-88054038D01*
X111075312Y-88054038D02*
X111113408Y-88130228D01*
X111113408Y-88130228D02*
X111113408Y-88244514D01*
X111113408Y-88244514D02*
X111075312Y-88320704D01*
X111075312Y-88320704D02*
X111037217Y-88358800D01*
X111037217Y-88358800D02*
X110961027Y-88396895D01*
X110961027Y-88396895D02*
X110656265Y-88396895D01*
X110656265Y-88396895D02*
X110656265Y-87596895D01*
X110656265Y-87596895D02*
X110922931Y-87596895D01*
X110922931Y-87596895D02*
X110999122Y-87634990D01*
X110999122Y-87634990D02*
X111037217Y-87673085D01*
X111037217Y-87673085D02*
X111075312Y-87749276D01*
X111075312Y-87749276D02*
X111075312Y-87825466D01*
X111075312Y-87825466D02*
X111037217Y-87901657D01*
X111037217Y-87901657D02*
X110999122Y-87939752D01*
X110999122Y-87939752D02*
X110922931Y-87977847D01*
X110922931Y-87977847D02*
X110656265Y-87977847D01*
X111456265Y-88396895D02*
X111456265Y-87596895D01*
X111456265Y-87596895D02*
X111722931Y-88168323D01*
X111722931Y-88168323D02*
X111989598Y-87596895D01*
X111989598Y-87596895D02*
X111989598Y-88396895D01*
X112370551Y-88396895D02*
X112370551Y-87596895D01*
X112370551Y-87596895D02*
X112675313Y-87596895D01*
X112675313Y-87596895D02*
X112751503Y-87634990D01*
X112751503Y-87634990D02*
X112789598Y-87673085D01*
X112789598Y-87673085D02*
X112827694Y-87749276D01*
X112827694Y-87749276D02*
X112827694Y-87863561D01*
X112827694Y-87863561D02*
X112789598Y-87939752D01*
X112789598Y-87939752D02*
X112751503Y-87977847D01*
X112751503Y-87977847D02*
X112675313Y-88015942D01*
X112675313Y-88015942D02*
X112370551Y-88015942D01*
X114046741Y-87977847D02*
X114161027Y-88015942D01*
X114161027Y-88015942D02*
X114199122Y-88054038D01*
X114199122Y-88054038D02*
X114237218Y-88130228D01*
X114237218Y-88130228D02*
X114237218Y-88244514D01*
X114237218Y-88244514D02*
X114199122Y-88320704D01*
X114199122Y-88320704D02*
X114161027Y-88358800D01*
X114161027Y-88358800D02*
X114084837Y-88396895D01*
X114084837Y-88396895D02*
X113780075Y-88396895D01*
X113780075Y-88396895D02*
X113780075Y-87596895D01*
X113780075Y-87596895D02*
X114046741Y-87596895D01*
X114046741Y-87596895D02*
X114122932Y-87634990D01*
X114122932Y-87634990D02*
X114161027Y-87673085D01*
X114161027Y-87673085D02*
X114199122Y-87749276D01*
X114199122Y-87749276D02*
X114199122Y-87825466D01*
X114199122Y-87825466D02*
X114161027Y-87901657D01*
X114161027Y-87901657D02*
X114122932Y-87939752D01*
X114122932Y-87939752D02*
X114046741Y-87977847D01*
X114046741Y-87977847D02*
X113780075Y-87977847D01*
X114694360Y-88396895D02*
X114618170Y-88358800D01*
X114618170Y-88358800D02*
X114580075Y-88320704D01*
X114580075Y-88320704D02*
X114541979Y-88244514D01*
X114541979Y-88244514D02*
X114541979Y-88015942D01*
X114541979Y-88015942D02*
X114580075Y-87939752D01*
X114580075Y-87939752D02*
X114618170Y-87901657D01*
X114618170Y-87901657D02*
X114694360Y-87863561D01*
X114694360Y-87863561D02*
X114808646Y-87863561D01*
X114808646Y-87863561D02*
X114884837Y-87901657D01*
X114884837Y-87901657D02*
X114922932Y-87939752D01*
X114922932Y-87939752D02*
X114961027Y-88015942D01*
X114961027Y-88015942D02*
X114961027Y-88244514D01*
X114961027Y-88244514D02*
X114922932Y-88320704D01*
X114922932Y-88320704D02*
X114884837Y-88358800D01*
X114884837Y-88358800D02*
X114808646Y-88396895D01*
X114808646Y-88396895D02*
X114694360Y-88396895D01*
X115418170Y-88396895D02*
X115341980Y-88358800D01*
X115341980Y-88358800D02*
X115303885Y-88320704D01*
X115303885Y-88320704D02*
X115265789Y-88244514D01*
X115265789Y-88244514D02*
X115265789Y-88015942D01*
X115265789Y-88015942D02*
X115303885Y-87939752D01*
X115303885Y-87939752D02*
X115341980Y-87901657D01*
X115341980Y-87901657D02*
X115418170Y-87863561D01*
X115418170Y-87863561D02*
X115532456Y-87863561D01*
X115532456Y-87863561D02*
X115608647Y-87901657D01*
X115608647Y-87901657D02*
X115646742Y-87939752D01*
X115646742Y-87939752D02*
X115684837Y-88015942D01*
X115684837Y-88015942D02*
X115684837Y-88244514D01*
X115684837Y-88244514D02*
X115646742Y-88320704D01*
X115646742Y-88320704D02*
X115608647Y-88358800D01*
X115608647Y-88358800D02*
X115532456Y-88396895D01*
X115532456Y-88396895D02*
X115418170Y-88396895D01*
X115989599Y-88358800D02*
X116065790Y-88396895D01*
X116065790Y-88396895D02*
X116218171Y-88396895D01*
X116218171Y-88396895D02*
X116294361Y-88358800D01*
X116294361Y-88358800D02*
X116332457Y-88282609D01*
X116332457Y-88282609D02*
X116332457Y-88244514D01*
X116332457Y-88244514D02*
X116294361Y-88168323D01*
X116294361Y-88168323D02*
X116218171Y-88130228D01*
X116218171Y-88130228D02*
X116103885Y-88130228D01*
X116103885Y-88130228D02*
X116027695Y-88092133D01*
X116027695Y-88092133D02*
X115989599Y-88015942D01*
X115989599Y-88015942D02*
X115989599Y-87977847D01*
X115989599Y-87977847D02*
X116027695Y-87901657D01*
X116027695Y-87901657D02*
X116103885Y-87863561D01*
X116103885Y-87863561D02*
X116218171Y-87863561D01*
X116218171Y-87863561D02*
X116294361Y-87901657D01*
X116561028Y-87863561D02*
X116865790Y-87863561D01*
X116675314Y-87596895D02*
X116675314Y-88282609D01*
X116675314Y-88282609D02*
X116713409Y-88358800D01*
X116713409Y-88358800D02*
X116789599Y-88396895D01*
X116789599Y-88396895D02*
X116865790Y-88396895D01*
X117741981Y-87977847D02*
X118008647Y-87977847D01*
X118122933Y-88396895D02*
X117741981Y-88396895D01*
X117741981Y-88396895D02*
X117741981Y-87596895D01*
X117741981Y-87596895D02*
X118122933Y-87596895D01*
X118389600Y-88396895D02*
X118808648Y-87863561D01*
X118389600Y-87863561D02*
X118808648Y-88396895D01*
X118999124Y-87863561D02*
X119303886Y-87863561D01*
X119113410Y-87596895D02*
X119113410Y-88282609D01*
X119113410Y-88282609D02*
X119151505Y-88358800D01*
X119151505Y-88358800D02*
X119227695Y-88396895D01*
X119227695Y-88396895D02*
X119303886Y-88396895D01*
X119875315Y-88358800D02*
X119799124Y-88396895D01*
X119799124Y-88396895D02*
X119646743Y-88396895D01*
X119646743Y-88396895D02*
X119570553Y-88358800D01*
X119570553Y-88358800D02*
X119532457Y-88282609D01*
X119532457Y-88282609D02*
X119532457Y-87977847D01*
X119532457Y-87977847D02*
X119570553Y-87901657D01*
X119570553Y-87901657D02*
X119646743Y-87863561D01*
X119646743Y-87863561D02*
X119799124Y-87863561D01*
X119799124Y-87863561D02*
X119875315Y-87901657D01*
X119875315Y-87901657D02*
X119913410Y-87977847D01*
X119913410Y-87977847D02*
X119913410Y-88054038D01*
X119913410Y-88054038D02*
X119532457Y-88130228D01*
X120256267Y-87863561D02*
X120256267Y-88396895D01*
X120256267Y-87939752D02*
X120294362Y-87901657D01*
X120294362Y-87901657D02*
X120370552Y-87863561D01*
X120370552Y-87863561D02*
X120484838Y-87863561D01*
X120484838Y-87863561D02*
X120561029Y-87901657D01*
X120561029Y-87901657D02*
X120599124Y-87977847D01*
X120599124Y-87977847D02*
X120599124Y-88396895D01*
X121322934Y-88396895D02*
X121322934Y-87596895D01*
X121322934Y-88358800D02*
X121246743Y-88396895D01*
X121246743Y-88396895D02*
X121094362Y-88396895D01*
X121094362Y-88396895D02*
X121018172Y-88358800D01*
X121018172Y-88358800D02*
X120980077Y-88320704D01*
X120980077Y-88320704D02*
X120941981Y-88244514D01*
X120941981Y-88244514D02*
X120941981Y-88015942D01*
X120941981Y-88015942D02*
X120980077Y-87939752D01*
X120980077Y-87939752D02*
X121018172Y-87901657D01*
X121018172Y-87901657D02*
X121094362Y-87863561D01*
X121094362Y-87863561D02*
X121246743Y-87863561D01*
X121246743Y-87863561D02*
X121322934Y-87901657D01*
X122008649Y-88358800D02*
X121932458Y-88396895D01*
X121932458Y-88396895D02*
X121780077Y-88396895D01*
X121780077Y-88396895D02*
X121703887Y-88358800D01*
X121703887Y-88358800D02*
X121665791Y-88282609D01*
X121665791Y-88282609D02*
X121665791Y-87977847D01*
X121665791Y-87977847D02*
X121703887Y-87901657D01*
X121703887Y-87901657D02*
X121780077Y-87863561D01*
X121780077Y-87863561D02*
X121932458Y-87863561D01*
X121932458Y-87863561D02*
X122008649Y-87901657D01*
X122008649Y-87901657D02*
X122046744Y-87977847D01*
X122046744Y-87977847D02*
X122046744Y-88054038D01*
X122046744Y-88054038D02*
X121665791Y-88130228D01*
X122389601Y-88396895D02*
X122389601Y-87863561D01*
X122389601Y-88015942D02*
X122427696Y-87939752D01*
X122427696Y-87939752D02*
X122465791Y-87901657D01*
X122465791Y-87901657D02*
X122541982Y-87863561D01*
X122541982Y-87863561D02*
X122618172Y-87863561D01*
X123494363Y-88396895D02*
X123494363Y-87596895D01*
X123494363Y-87596895D02*
X123761029Y-88168323D01*
X123761029Y-88168323D02*
X124027696Y-87596895D01*
X124027696Y-87596895D02*
X124027696Y-88396895D01*
X124408649Y-88396895D02*
X124408649Y-87863561D01*
X124408649Y-87596895D02*
X124370553Y-87634990D01*
X124370553Y-87634990D02*
X124408649Y-87673085D01*
X124408649Y-87673085D02*
X124446744Y-87634990D01*
X124446744Y-87634990D02*
X124408649Y-87596895D01*
X124408649Y-87596895D02*
X124408649Y-87673085D01*
X124789601Y-87863561D02*
X124789601Y-88396895D01*
X124789601Y-87939752D02*
X124827696Y-87901657D01*
X124827696Y-87901657D02*
X124903886Y-87863561D01*
X124903886Y-87863561D02*
X125018172Y-87863561D01*
X125018172Y-87863561D02*
X125094363Y-87901657D01*
X125094363Y-87901657D02*
X125132458Y-87977847D01*
X125132458Y-87977847D02*
X125132458Y-88396895D01*
X125513411Y-88396895D02*
X125513411Y-87863561D01*
X125513411Y-87596895D02*
X125475315Y-87634990D01*
X125475315Y-87634990D02*
X125513411Y-87673085D01*
X125513411Y-87673085D02*
X125551506Y-87634990D01*
X125551506Y-87634990D02*
X125513411Y-87596895D01*
X125513411Y-87596895D02*
X125513411Y-87673085D01*
X117941904Y-72032580D02*
X117941904Y-71223057D01*
X117941904Y-71223057D02*
X117894285Y-71127819D01*
X117894285Y-71127819D02*
X117846666Y-71080200D01*
X117846666Y-71080200D02*
X117751428Y-71032580D01*
X117751428Y-71032580D02*
X117560952Y-71032580D01*
X117560952Y-71032580D02*
X117465714Y-71080200D01*
X117465714Y-71080200D02*
X117418095Y-71127819D01*
X117418095Y-71127819D02*
X117370476Y-71223057D01*
X117370476Y-71223057D02*
X117370476Y-72032580D01*
X116370476Y-71032580D02*
X116941904Y-71032580D01*
X116656190Y-71032580D02*
X116656190Y-72032580D01*
X116656190Y-72032580D02*
X116751428Y-71889723D01*
X116751428Y-71889723D02*
X116846666Y-71794485D01*
X116846666Y-71794485D02*
X116941904Y-71746866D01*
D11*
X115996666Y-98864509D02*
X115663333Y-98864509D01*
X115663333Y-99388319D02*
X115663333Y-98388319D01*
X115663333Y-98388319D02*
X116139523Y-98388319D01*
X116520476Y-99388319D02*
X116520476Y-98388319D01*
X116520476Y-98388319D02*
X116901428Y-98388319D01*
X116901428Y-98388319D02*
X116996666Y-98435938D01*
X116996666Y-98435938D02*
X117044285Y-98483557D01*
X117044285Y-98483557D02*
X117091904Y-98578795D01*
X117091904Y-98578795D02*
X117091904Y-98721652D01*
X117091904Y-98721652D02*
X117044285Y-98816890D01*
X117044285Y-98816890D02*
X116996666Y-98864509D01*
X116996666Y-98864509D02*
X116901428Y-98912128D01*
X116901428Y-98912128D02*
X116520476Y-98912128D01*
X118091904Y-99293080D02*
X118044285Y-99340700D01*
X118044285Y-99340700D02*
X117901428Y-99388319D01*
X117901428Y-99388319D02*
X117806190Y-99388319D01*
X117806190Y-99388319D02*
X117663333Y-99340700D01*
X117663333Y-99340700D02*
X117568095Y-99245461D01*
X117568095Y-99245461D02*
X117520476Y-99150223D01*
X117520476Y-99150223D02*
X117472857Y-98959747D01*
X117472857Y-98959747D02*
X117472857Y-98816890D01*
X117472857Y-98816890D02*
X117520476Y-98626414D01*
X117520476Y-98626414D02*
X117568095Y-98531176D01*
X117568095Y-98531176D02*
X117663333Y-98435938D01*
X117663333Y-98435938D02*
X117806190Y-98388319D01*
X117806190Y-98388319D02*
X117901428Y-98388319D01*
X117901428Y-98388319D02*
X118044285Y-98435938D01*
X118044285Y-98435938D02*
X118091904Y-98483557D01*
X119044285Y-99388319D02*
X118472857Y-99388319D01*
X118758571Y-99388319D02*
X118758571Y-98388319D01*
X118758571Y-98388319D02*
X118663333Y-98531176D01*
X118663333Y-98531176D02*
X118568095Y-98626414D01*
X118568095Y-98626414D02*
X118472857Y-98674033D01*
D12*
%TO.C,FPC1*%
X114980000Y-97481000D02*
X114980000Y-95895000D01*
X114980000Y-97481000D02*
X115722000Y-97481000D01*
X115695500Y-94098000D02*
X115695500Y-94553500D01*
X115695500Y-94553500D02*
X115695500Y-95531000D01*
X118936000Y-97481000D02*
X119680000Y-97481000D01*
X118946000Y-94053500D02*
X115695500Y-94053500D01*
X118946000Y-94508500D02*
X118946000Y-94053500D01*
X118946000Y-94508500D02*
X118946000Y-95531000D01*
X118946000Y-95531000D02*
X115577000Y-95531000D01*
X118946000Y-95531000D02*
X119083000Y-95531000D01*
X119680000Y-97481000D02*
X119680000Y-95850000D01*
%TD*%
%LPC*%
D13*
%TO.C,U1*%
X109555000Y-87995000D03*
X109560000Y-93080000D03*
X109560000Y-95620000D03*
X109560000Y-98160000D03*
X109560000Y-100700000D03*
X124800000Y-100700000D03*
X124800000Y-98160000D03*
X124800000Y-95620000D03*
X124800000Y-93080000D03*
%TD*%
D14*
%TO.C,FPC1*%
X118580000Y-97908500D03*
X118080000Y-97908500D03*
X117580000Y-97908500D03*
X117080000Y-97908500D03*
X116580000Y-97908500D03*
X116080000Y-97908500D03*
D15*
X119466500Y-95098500D03*
X115196500Y-95098500D03*
%TD*%
%LPD*%
M02*
